<svg xmlns="http://www.w3.org/2000/svg" xmlns:xlink="http://www.w3.org/1999/xlink" width="256" zoomAndPan="magnify" viewBox="0 0 192 199.92" height="256" preserveAspectRatio="xMidYMid meet" version="1.0"><defs><clipPath id="a266428792"><path d="M 0.0390625 28 L 191.960938 28 L 191.960938 164 L 0.0390625 164 Z M 0.0390625 28 " clip-rule="nonzero"/></clipPath></defs><g clip-path="url(#a266428792)"><path fill="#000000" d="M 109.746094 82.894531 C 109.523438 82.648438 109.363281 82.375 109.121094 82.140625 L 109.082031 82.167969 C 101.589844 74.804688 88.738281 75.492188 81.957031 82.160156 C 75.171875 88.828125 75.191406 102.144531 81.976562 108.8125 C 82.0625 108.894531 82.167969 108.953125 82.253906 109.035156 C 82.484375 109.273438 82.644531 109.554688 82.886719 109.792969 L 82.914062 109.753906 C 90.410156 117.121094 103.257812 116.441406 110.042969 109.761719 C 116.828125 103.09375 116.808594 89.777344 110.023438 83.113281 C 109.9375 83.027344 109.832031 82.980469 109.746094 82.894531 M 68.359375 68.804688 L 54.789062 55.460938 C 34.433594 75.472656 35.386719 116.460938 55.738281 136.464844 L 69.308594 123.128906 C 55.738281 109.792969 54.789062 82.140625 68.359375 68.804688 M 41.21875 42.125 L 27.652344 28.789062 C -13.066406 68.804688 -5.332031 129.796875 28.601562 163.132812 L 42.167969 149.800781 C 15.03125 123.128906 14.082031 68.804688 41.21875 42.125 M 136.261719 55.460938 L 122.691406 68.804688 C 136.261719 82.140625 137.210938 109.792969 123.640625 123.128906 L 137.210938 136.464844 C 157.5625 116.460938 156.613281 75.472656 136.261719 55.460938 M 164.347656 163.132812 L 150.777344 149.800781 C 177.925781 123.128906 176.976562 68.804688 149.828125 42.125 L 163.398438 28.789062 C 197.332031 62.136719 205.066406 123.128906 164.347656 163.132812 " fill-opacity="1" fill-rule="evenodd"/></g></svg>